<svg width="32" height="32" viewBox="0 0 32 32" fill="none" xmlns="http://www.w3.org/2000/svg">
  <!-- Background -->
  <rect width="32" height="32" fill="#000000"/>
  
  <!-- Main hexagonal/shield shape with circuit pattern -->
  <defs>
    <linearGradient id="blueGradient" x1="0%" y1="0%" x2="100%" y2="100%">
      <stop offset="0%" style="stop-color:#1e3a8a;stop-opacity:1" />
      <stop offset="50%" style="stop-color:#3b82f6;stop-opacity:1" />
      <stop offset="100%" style="stop-color:#60a5fa;stop-opacity:1" />
    </linearGradient>
    <linearGradient id="neonBlue" x1="0%" y1="0%" x2="100%" y2="100%">
      <stop offset="0%" style="stop-color:#00d4ff;stop-opacity:1" />
      <stop offset="100%" style="stop-color:#3b82f6;stop-opacity:1" />
    </linearGradient>
  </defs>
  
  <!-- Hexagonal base shape -->
  <path d="M8 4 L20 4 L24 8 L24 16 L20 20 L8 20 L4 16 L4 8 Z" fill="url(#blueGradient)" stroke="url(#neonBlue)" stroke-width="0.5"/>
  
  <!-- Circuit board pattern inside -->
  <!-- Horizontal lines -->
  <line x1="6" y1="10" x2="22" y2="10" stroke="url(#neonBlue)" stroke-width="0.3" opacity="0.6"/>
  <line x1="6" y1="14" x2="22" y2="14" stroke="url(#neonBlue)" stroke-width="0.3" opacity="0.6"/>
  <line x1="6" y1="18" x2="22" y2="18" stroke="url(#neonBlue)" stroke-width="0.3" opacity="0.6"/>
  
  <!-- Vertical lines -->
  <line x1="10" y1="6" x2="10" y2="22" stroke="url(#neonBlue)" stroke-width="0.3" opacity="0.4"/>
  <line x1="14" y1="6" x2="14" y2="22" stroke="url(#neonBlue)" stroke-width="0.3" opacity="0.4"/>
  <line x1="18" y1="6" x2="18" y2="22" stroke="url(#neonBlue)" stroke-width="0.3" opacity="0.4"/>
  
  <!-- Circuit nodes -->
  <circle cx="10" cy="10" r="1" fill="url(#neonBlue)"/>
  <circle cx="14" cy="14" r="1.2" fill="#1e3a8a"/>
  <circle cx="18" cy="18" r="1" fill="url(#neonBlue)"/>
  
  <!-- Speech bubble -->
  <path d="M24 8 L28 8 L28 14 L24 14 L24 12 L22 12 Z" fill="url(#neonBlue)" stroke="url(#neonBlue)" stroke-width="0.3"/>
  
  <!-- Text lines in speech bubble -->
  <line x1="25" y1="10" x2="27" y2="10" stroke="#000000" stroke-width="0.8"/>
  <line x1="25" y1="11.5" x2="26.5" y2="11.5" stroke="#000000" stroke-width="0.8"/>
  <line x1="25" y1="13" x2="26" y2="13" stroke="#000000" stroke-width="0.8"/>
</svg>

