<svg width="32" height="32" viewBox="0 0 32 32" fill="none" xmlns="http://www.w3.org/2000/svg">
  <!-- Background -->
  <rect width="32" height="32" fill="#000000"/>
  
  <defs>
    <!-- Gradient for main shape -->
    <linearGradient id="mainGradient" x1="0%" y1="100%" x2="100%" y2="0%">
      <stop offset="0%" style="stop-color:#1e40af;stop-opacity:1" />
      <stop offset="50%" style="stop-color:#3b82f6;stop-opacity:1" />
      <stop offset="100%" style="stop-color:#60a5fa;stop-opacity:1" />
    </linearGradient>
    <!-- Neon blue for outlines and highlights -->
    <linearGradient id="neonGradient" x1="0%" y1="0%" x2="100%" y2="100%">
      <stop offset="0%" style="stop-color:#00d4ff;stop-opacity:1" />
      <stop offset="100%" style="stop-color:#3b82f6;stop-opacity:1" />
    </linearGradient>
  </defs>
  
  <!-- Main hexagonal/shield shape (irregular hexagon) -->
  <path d="M6 4 L22 4 L26 8 L26 20 L22 24 L6 24 L2 20 L2 8 Z" 
        fill="url(#mainGradient)" 
        stroke="url(#neonGradient)" 
        stroke-width="0.8"/>
  
  <!-- Circuit board traces inside -->
  <!-- Horizontal traces -->
  <line x1="5" y1="9" x2="23" y2="9" stroke="url(#neonGradient)" stroke-width="0.4" opacity="0.7"/>
  <line x1="5" y1="13" x2="23" y2="13" stroke="url(#neonGradient)" stroke-width="0.4" opacity="0.7"/>
  <line x1="5" y1="17" x2="23" y2="17" stroke="url(#neonGradient)" stroke-width="0.4" opacity="0.7"/>
  <line x1="5" y1="21" x2="23" y2="21" stroke="url(#neonGradient)" stroke-width="0.4" opacity="0.7"/>
  
  <!-- Vertical traces -->
  <line x1="9" y1="5" x2="9" y2="23" stroke="url(#neonGradient)" stroke-width="0.4" opacity="0.5"/>
  <line x1="13" y1="5" x2="13" y2="23" stroke="url(#neonGradient)" stroke-width="0.4" opacity="0.5"/>
  <line x1="17" y1="5" x2="17" y2="23" stroke="url(#neonGradient)" stroke-width="0.4" opacity="0.5"/>
  <line x1="21" y1="5" x2="21" y2="23" stroke="url(#neonGradient)" stroke-width="0.4" opacity="0.5"/>
  
  <!-- Circuit nodes (larger one in center-left) -->
  <circle cx="9" cy="11" r="1.2" fill="url(#neonGradient)"/>
  <circle cx="13" cy="15" r="1.5" fill="#1e40af"/>
  <circle cx="17" cy="19" r="1.2" fill="url(#neonGradient)"/>
  
  <!-- Speech bubble emerging from upper right -->
  <path d="M26 6 L29 6 L29 12 L26 12 L26 10 L24 10 Z" 
        fill="url(#neonGradient)" 
        stroke="url(#neonGradient)" 
        stroke-width="0.4"/>
  
  <!-- Text lines in speech bubble (three lines of varying lengths) -->
  <line x1="26.5" y1="8" x2="28.5" y2="8" stroke="#000000" stroke-width="1" stroke-linecap="round"/>
  <line x1="26.5" y1="9.5" x2="28" y2="9.5" stroke="#000000" stroke-width="1" stroke-linecap="round"/>
  <line x1="26.5" y1="11" x2="27.5" y2="11" stroke="#000000" stroke-width="1" stroke-linecap="round"/>
</svg>
